<svg width="40" height="40" viewBox="0 0 112 40" fill="none" xmlns="http://www.w3.org/2000/svg">
<path d="M 10.512 18.864 L 10.512 23.004 Q 10.512 23.84 10.756 24.274 A 1.117 1.117 0 0 0 10.818 24.372 A 0.887 0.887 0 0 0 11.201 24.671 Q 11.509 24.804 11.988 24.804 L 12.744 24.804 A 2.415 2.415 0 0 1 13.099 24.828 Q 13.279 24.855 13.422 24.912 A 0.902 0.902 0 0 1 13.734 25.11 A 0.91 0.91 0 0 1 13.938 25.436 Q 13.992 25.579 14.018 25.757 A 2.436 2.436 0 0 1 14.04 26.1 L 14.04 30.384 A 2.415 2.415 0 0 1 14.016 30.739 Q 13.989 30.919 13.933 31.062 A 0.902 0.902 0 0 1 13.734 31.374 A 0.91 0.91 0 0 1 13.409 31.578 Q 13.266 31.632 13.087 31.658 A 2.436 2.436 0 0 1 12.744 31.68 L 11.16 31.68 A 19.727 19.727 0 0 1 8.821 31.552 Q 5.612 31.167 4.194 29.628 A 7.041 7.041 0 0 1 2.422 25.882 A 9.746 9.746 0 0 1 2.304 24.336 L 2.304 19.656 Q 1.315 19.347 0.751 18.76 A 2.598 2.598 0 0 1 0.576 18.558 Q 0.093 17.939 0.015 16.927 A 5.257 5.257 0 0 1 0 16.524 L 0 15.264 A 4.692 4.692 0 0 1 0.062 14.476 Q 0.189 13.732 0.576 13.248 Q 1.152 12.528 2.304 12.168 L 2.304 7.38 A 9.278 9.278 0 0 1 2.592 5.008 A 6.881 6.881 0 0 1 4.194 2.052 A 5.142 5.142 0 0 1 5.964 0.842 Q 7.601 0.133 10.164 0.021 A 22.804 22.804 0 0 1 11.16 0 L 12.744 0 A 2.415 2.415 0 0 1 13.099 0.024 Q 13.279 0.051 13.422 0.108 A 0.902 0.902 0 0 1 13.734 0.306 A 0.91 0.91 0 0 1 13.938 0.632 Q 13.992 0.775 14.018 0.953 A 2.436 2.436 0 0 1 14.04 1.296 L 14.04 5.652 A 2.415 2.415 0 0 1 14.016 6.007 Q 13.989 6.187 13.933 6.33 A 0.902 0.902 0 0 1 13.734 6.642 A 0.91 0.91 0 0 1 13.409 6.846 Q 13.266 6.9 13.087 6.926 A 2.436 2.436 0 0 1 12.744 6.948 L 11.988 6.948 Q 11.124 6.948 10.818 7.38 A 1.347 1.347 0 0 0 10.644 7.737 Q 10.53 8.08 10.515 8.584 A 5.323 5.323 0 0 0 10.512 8.748 L 10.512 12.96 A 5.422 5.422 0 0 1 10.485 13.519 Q 10.417 14.181 10.17 14.544 A 1.228 1.228 0 0 1 9.757 14.916 Q 9.572 15.023 9.331 15.095 A 3.237 3.237 0 0 1 8.892 15.192 L 7.704 15.408 A 1.131 1.131 0 0 0 7.574 15.434 Q 7.435 15.471 7.359 15.538 A 0.316 0.316 0 0 0 7.344 15.552 A 0.314 0.314 0 0 0 7.275 15.661 Q 7.239 15.754 7.236 15.893 A 1.138 1.138 0 0 0 7.236 15.912 Q 7.236 16.164 7.344 16.272 A 0.383 0.383 0 0 0 7.443 16.342 Q 7.545 16.393 7.704 16.416 L 8.892 16.632 A 3.167 3.167 0 0 1 9.37 16.741 Q 9.612 16.818 9.796 16.931 A 1.208 1.208 0 0 1 10.17 17.28 A 1.6 1.6 0 0 1 10.363 17.689 Q 10.492 18.088 10.509 18.674 A 6.342 6.342 0 0 1 10.512 18.864 Z M 10.8 28.404 L 10.8 28.044 A 7.823 7.823 0 0 1 9.634 27.963 Q 9.04 27.873 8.563 27.684 A 3.163 3.163 0 0 1 7.632 27.126 A 2.884 2.884 0 0 1 6.788 25.792 Q 6.638 25.314 6.601 24.734 A 6.177 6.177 0 0 1 6.588 24.336 L 6.588 18.612 A 5.346 5.346 0 0 1 5.954 18.501 Q 5.212 18.321 4.824 17.946 A 1.665 1.665 0 0 1 4.391 17.218 Q 4.284 16.865 4.284 16.416 L 4.284 15.408 A 3.116 3.116 0 0 1 4.335 14.826 Q 4.399 14.49 4.543 14.229 A 1.56 1.56 0 0 1 4.806 13.878 Q 5.295 13.39 6.43 13.232 A 6.645 6.645 0 0 1 6.588 13.212 L 6.588 7.38 Q 6.588 5.37 7.508 4.552 A 2.003 2.003 0 0 1 7.614 4.464 A 3.186 3.186 0 0 1 8.532 3.985 Q 9.442 3.672 10.8 3.672 L 10.8 3.312 Q 8.424 3.312 7.326 4.212 A 2.612 2.612 0 0 0 6.575 5.262 Q 6.228 6.104 6.228 7.38 L 6.228 12.924 A 3.82 3.82 0 0 0 5.484 13.095 Q 4.919 13.291 4.536 13.662 Q 3.996 14.187 3.932 15.147 A 3.986 3.986 0 0 0 3.924 15.408 L 3.924 16.416 Q 3.924 17.532 4.536 18.144 Q 5.148 18.756 6.228 18.9 L 6.228 24.336 Q 6.228 25.765 6.769 26.687 A 2.978 2.978 0 0 0 7.344 27.396 A 3.421 3.421 0 0 0 8.5 28.066 Q 9.445 28.404 10.8 28.404 Z" fill="url(#paint0_linear_3_20)"/>
<path d="M 36.144 28.8 L 19.44 28.8 A 2.415 2.415 0 0 1 19.085 28.776 Q 18.905 28.749 18.762 28.693 A 0.902 0.902 0 0 1 18.45 28.494 A 0.91 0.91 0 0 1 18.246 28.169 Q 18.192 28.026 18.167 27.847 A 2.436 2.436 0 0 1 18.144 27.504 L 18.144 4.176 A 2.415 2.415 0 0 1 18.168 3.821 Q 18.195 3.641 18.252 3.498 A 0.902 0.902 0 0 1 18.45 3.186 A 0.91 0.91 0 0 1 18.776 2.982 Q 18.919 2.928 19.097 2.903 A 2.436 2.436 0 0 1 19.44 2.88 L 36.144 2.88 A 2.415 2.415 0 0 1 36.499 2.904 Q 36.679 2.931 36.822 2.988 A 0.902 0.902 0 0 1 37.134 3.186 A 0.91 0.91 0 0 1 37.338 3.512 Q 37.392 3.655 37.418 3.833 A 2.436 2.436 0 0 1 37.44 4.176 L 37.44 8.388 A 2.415 2.415 0 0 1 37.416 8.743 Q 37.389 8.923 37.333 9.066 A 0.902 0.902 0 0 1 37.134 9.378 A 0.91 0.91 0 0 1 36.809 9.582 Q 36.666 9.636 36.487 9.662 A 2.436 2.436 0 0 1 36.144 9.684 L 26.208 9.684 L 26.208 12.456 L 33.228 12.456 A 2.415 2.415 0 0 1 33.583 12.48 Q 33.763 12.507 33.906 12.564 A 0.902 0.902 0 0 1 34.218 12.762 A 0.91 0.91 0 0 1 34.422 13.088 Q 34.476 13.231 34.502 13.409 A 2.436 2.436 0 0 1 34.524 13.752 L 34.524 17.604 A 2.415 2.415 0 0 1 34.5 17.959 Q 34.473 18.139 34.417 18.282 A 0.902 0.902 0 0 1 34.218 18.594 A 0.91 0.91 0 0 1 33.893 18.798 Q 33.75 18.852 33.571 18.878 A 2.436 2.436 0 0 1 33.228 18.9 L 26.208 18.9 L 26.208 21.996 L 36.144 21.996 A 2.415 2.415 0 0 1 36.499 22.02 Q 36.679 22.047 36.822 22.104 A 0.902 0.902 0 0 1 37.134 22.302 A 0.91 0.91 0 0 1 37.338 22.628 Q 37.392 22.771 37.418 22.949 A 2.436 2.436 0 0 1 37.44 23.292 L 37.44 27.504 A 2.415 2.415 0 0 1 37.416 27.859 Q 37.389 28.039 37.333 28.182 A 0.902 0.902 0 0 1 37.134 28.494 A 0.91 0.91 0 0 1 36.809 28.698 Q 36.666 28.752 36.487 28.778 A 2.436 2.436 0 0 1 36.144 28.8 Z M 34.2 25.56 L 34.2 25.2 L 22.428 25.2 L 22.428 15.876 L 31.284 15.876 L 31.284 15.516 L 22.428 15.516 L 22.428 6.48 L 34.2 6.48 L 34.2 6.12 L 22.068 6.12 L 22.068 25.56 L 34.2 25.56 Z" fill="url(#paint1_linear_3_20)"/>
<path d="M 54.828 28.8 L 48.996 28.8 A 2.415 2.415 0 0 1 48.641 28.776 Q 48.461 28.749 48.318 28.693 A 0.902 0.902 0 0 1 48.006 28.494 A 0.91 0.91 0 0 1 47.802 28.169 Q 47.748 28.026 47.723 27.847 A 2.436 2.436 0 0 1 47.7 27.504 L 47.7 22.896 L 42.192 15.516 Q 41.366 14.403 41.096 13.577 A 3.39 3.39 0 0 1 41.094 13.572 Q 40.824 12.744 40.824 11.088 L 40.824 4.176 A 2.415 2.415 0 0 1 40.848 3.821 Q 40.875 3.641 40.932 3.498 A 0.902 0.902 0 0 1 41.13 3.186 A 0.91 0.91 0 0 1 41.456 2.982 Q 41.599 2.928 41.777 2.903 A 2.436 2.436 0 0 1 42.12 2.88 L 47.664 2.88 A 2.415 2.415 0 0 1 48.019 2.904 Q 48.199 2.931 48.342 2.988 A 0.902 0.902 0 0 1 48.654 3.186 A 0.91 0.91 0 0 1 48.858 3.512 Q 48.912 3.655 48.938 3.833 A 2.436 2.436 0 0 1 48.96 4.176 L 48.96 10.08 A 8.037 8.037 0 0 0 48.979 10.628 A 9.329 9.329 0 0 0 48.996 10.836 A 1.502 1.502 0 0 0 49.197 11.456 A 1.845 1.845 0 0 0 49.284 11.592 L 50.94 14.184 A 2.179 2.179 0 0 0 51.06 14.377 Q 51.185 14.555 51.318 14.652 A 0.742 0.742 0 0 0 51.633 14.782 A 1.003 1.003 0 0 0 51.804 14.796 L 52.164 14.796 A 0.955 0.955 0 0 0 52.397 14.769 A 0.726 0.726 0 0 0 52.65 14.652 A 0.959 0.959 0 0 0 52.796 14.519 Q 52.916 14.387 53.028 14.184 L 54.684 11.592 A 1.673 1.673 0 0 0 54.899 11.176 A 1.446 1.446 0 0 0 54.972 10.836 A 8.721 8.721 0 0 0 55.005 10.286 A 7.51 7.51 0 0 0 55.008 10.08 L 55.008 4.176 A 2.415 2.415 0 0 1 55.032 3.821 Q 55.059 3.641 55.116 3.498 A 0.902 0.902 0 0 1 55.314 3.186 A 0.91 0.91 0 0 1 55.64 2.982 Q 55.783 2.928 55.961 2.903 A 2.436 2.436 0 0 1 56.304 2.88 L 61.668 2.88 A 2.415 2.415 0 0 1 62.023 2.904 Q 62.203 2.931 62.346 2.988 A 0.902 0.902 0 0 1 62.658 3.186 A 0.91 0.91 0 0 1 62.862 3.512 Q 62.916 3.655 62.942 3.833 A 2.436 2.436 0 0 1 62.964 4.176 L 62.964 11.088 A 15.3 15.3 0 0 1 62.941 11.954 Q 62.883 12.977 62.676 13.572 Q 62.483 14.129 62.062 14.815 A 12.614 12.614 0 0 1 61.596 15.516 L 56.124 22.932 L 56.124 27.504 A 2.415 2.415 0 0 1 56.1 27.859 Q 56.073 28.039 56.017 28.182 A 0.902 0.902 0 0 1 55.818 28.494 A 0.91 0.91 0 0 1 55.493 28.698 Q 55.35 28.752 55.171 28.778 A 2.436 2.436 0 0 1 54.828 28.8 Z M 52.092 19.404 L 52.344 19.404 Q 53.172 19.404 53.802 19.044 Q 54.432 18.684 55.008 17.892 L 58.608 13.032 Q 59.04 12.456 59.094 11.754 A 18.268 18.268 0 0 0 59.14 10.842 A 21.782 21.782 0 0 0 59.148 10.26 L 59.148 6.12 L 58.788 6.12 L 58.788 10.26 Q 58.788 11.016 58.716 11.718 Q 58.644 12.42 58.284 12.888 L 54.684 17.748 Q 54.26 18.285 53.825 18.589 A 2.601 2.601 0 0 1 53.586 18.738 A 2.508 2.508 0 0 1 52.471 19.042 A 2.982 2.982 0 0 1 52.344 19.044 L 51.372 19.044 A 2.761 2.761 0 0 1 50.397 18.861 A 3.33 3.33 0 0 1 50.148 18.756 A 2.277 2.277 0 0 1 49.522 18.312 Q 49.28 18.074 49.068 17.748 L 45.576 12.888 Q 45.216 12.348 45.144 11.682 Q 45.072 11.016 45.072 10.26 L 45.072 6.12 L 44.712 6.12 L 44.712 10.26 Q 44.712 11.052 44.784 11.772 A 2.638 2.638 0 0 0 45.001 12.602 A 2.39 2.39 0 0 0 45.252 13.032 L 48.744 17.892 Q 49.32 18.684 49.95 19.044 A 2.748 2.748 0 0 0 51.129 19.395 A 3.328 3.328 0 0 0 51.372 19.404 L 51.732 19.404 L 51.732 25.56 L 52.092 25.56 L 52.092 19.404 Z" fill="url(#paint2_linear_3_20)"/>
<path d="M 82.188 28.8 L 68.364 28.8 A 2.415 2.415 0 0 1 68.009 28.776 Q 67.829 28.749 67.686 28.693 A 0.902 0.902 0 0 1 67.374 28.494 A 0.91 0.91 0 0 1 67.17 28.169 Q 67.116 28.026 67.091 27.847 A 2.436 2.436 0 0 1 67.068 27.504 L 67.068 4.176 A 2.415 2.415 0 0 1 67.092 3.821 Q 67.119 3.641 67.176 3.498 A 0.902 0.902 0 0 1 67.374 3.186 A 0.91 0.91 0 0 1 67.7 2.982 Q 67.843 2.928 68.021 2.903 A 2.436 2.436 0 0 1 68.364 2.88 L 79.848 2.88 A 14.748 14.748 0 0 1 81.687 2.987 Q 83.736 3.245 84.935 4.128 A 4.329 4.329 0 0 1 85.068 4.23 Q 86.76 5.58 86.76 8.388 L 86.76 10.116 A 7.178 7.178 0 0 1 86.693 11.131 Q 86.572 11.971 86.238 12.582 A 3.167 3.167 0 0 1 84.835 13.912 A 3.998 3.998 0 0 1 84.636 14.004 A 6.815 6.815 0 0 1 86.02 14.27 Q 86.864 14.532 87.477 15.018 A 3.753 3.753 0 0 1 88.056 15.588 A 4.424 4.424 0 0 1 88.819 17.025 Q 89.029 17.667 89.114 18.448 A 10.493 10.493 0 0 1 89.172 19.584 L 89.172 22.896 Q 89.172 25.92 87.462 27.36 A 5.273 5.273 0 0 1 85.805 28.279 Q 84.332 28.8 82.188 28.8 Z M 71.064 6.12 L 71.064 25.56 L 80.748 25.56 A 14.095 14.095 0 0 0 81.637 25.534 Q 82.095 25.505 82.485 25.444 A 5.812 5.812 0 0 0 83.196 25.29 Q 83.863 25.098 84.302 24.805 A 2.283 2.283 0 0 0 84.618 24.552 Q 85.104 24.084 85.284 23.418 A 5.16 5.16 0 0 0 85.439 22.536 A 6.385 6.385 0 0 0 85.464 21.96 L 85.464 19.656 Q 85.464 18.756 85.302 18 Q 85.14 17.244 84.636 16.686 Q 84.132 16.128 83.196 15.822 A 5.373 5.373 0 0 0 82.418 15.636 Q 82.018 15.569 81.551 15.539 A 12.219 12.219 0 0 0 80.784 15.516 Q 82.243 15.143 82.663 14.322 A 1.498 1.498 0 0 0 82.71 14.22 A 4.889 4.889 0 0 0 83.07 12.704 A 5.855 5.855 0 0 0 83.088 12.24 L 83.088 9.936 A 6.173 6.173 0 0 0 83.018 8.988 A 5.224 5.224 0 0 0 82.908 8.46 Q 82.728 7.776 82.224 7.254 A 2.701 2.701 0 0 0 81.668 6.819 Q 81.395 6.655 81.058 6.524 A 5.277 5.277 0 0 0 80.784 6.426 A 5.373 5.373 0 0 0 80.006 6.24 Q 79.606 6.173 79.139 6.143 A 12.219 12.219 0 0 0 78.372 6.12 L 71.064 6.12 Z M 71.424 15.876 L 80.784 15.876 Q 82.825 15.876 83.786 16.494 A 1.927 1.927 0 0 1 84.294 16.956 A 3.968 3.968 0 0 1 85.008 18.606 A 5.506 5.506 0 0 1 85.104 19.656 L 85.104 21.96 A 4.268 4.268 0 0 1 84.992 22.964 A 2.952 2.952 0 0 1 84.276 24.318 Q 83.448 25.2 80.748 25.2 L 71.424 25.2 L 71.424 15.876 Z M 79.848 18.432 L 75.168 18.432 L 75.168 22.68 L 79.848 22.68 Q 80.322 22.68 80.632 22.507 A 1.012 1.012 0 0 0 80.874 22.32 A 1.127 1.127 0 0 0 81.12 21.904 Q 81.18 21.728 81.202 21.513 A 2.61 2.61 0 0 0 81.216 21.24 L 81.216 19.836 A 2.402 2.402 0 0 0 81.186 19.444 Q 81.115 19.015 80.874 18.774 Q 80.532 18.432 79.848 18.432 Z M 71.424 6.48 L 78.372 6.48 A 11.242 11.242 0 0 1 79.535 6.536 Q 80.696 6.657 81.364 7.044 A 1.95 1.95 0 0 1 81.9 7.488 A 3.63 3.63 0 0 1 82.711 9.529 A 4.704 4.704 0 0 1 82.728 9.936 L 82.728 12.24 Q 82.728 12.888 82.602 13.482 Q 82.476 14.076 82.026 14.526 Q 81.674 14.879 81.067 15.121 A 4.906 4.906 0 0 1 80.712 15.246 Q 79.857 15.513 78.402 15.516 A 16.076 16.076 0 0 1 78.372 15.516 L 71.424 15.516 L 71.424 6.48 Z M 78.228 9 L 75.168 9 L 75.168 12.888 L 78.228 12.888 Q 78.702 12.888 79.012 12.715 A 1.012 1.012 0 0 0 79.254 12.528 A 1.127 1.127 0 0 0 79.5 12.112 Q 79.56 11.936 79.582 11.721 A 2.61 2.61 0 0 0 79.596 11.448 L 79.596 10.44 Q 79.596 9.72 79.254 9.36 A 1.076 1.076 0 0 0 78.794 9.079 Q 78.622 9.024 78.412 9.007 A 2.342 2.342 0 0 0 78.228 9 Z" fill="url(#paint3_linear_3_20)"/>
<path d="M 95.832 23.004 L 95.832 18.864 A 6.776 6.776 0 0 1 95.832 18.848 Q 95.834 17.887 96.11 17.386 A 1.316 1.316 0 0 1 96.174 17.28 A 1.228 1.228 0 0 1 96.587 16.908 Q 96.772 16.802 97.014 16.729 A 3.237 3.237 0 0 1 97.452 16.632 L 98.64 16.416 A 1.131 1.131 0 0 0 98.77 16.39 Q 98.909 16.353 98.985 16.286 A 0.316 0.316 0 0 0 99 16.272 A 0.314 0.314 0 0 0 99.069 16.163 Q 99.106 16.07 99.108 15.931 A 1.138 1.138 0 0 0 99.108 15.912 Q 99.108 15.66 99 15.552 A 0.383 0.383 0 0 0 98.901 15.483 Q 98.8 15.431 98.64 15.408 L 97.452 15.192 A 3.167 3.167 0 0 1 96.974 15.083 Q 96.732 15.006 96.548 14.893 A 1.208 1.208 0 0 1 96.174 14.544 A 1.6 1.6 0 0 1 95.981 14.135 Q 95.852 13.736 95.835 13.15 A 6.342 6.342 0 0 1 95.832 12.96 L 95.832 8.748 Q 95.832 7.913 95.588 7.479 A 1.117 1.117 0 0 0 95.526 7.38 A 0.887 0.887 0 0 0 95.143 7.081 Q 94.835 6.948 94.356 6.948 L 93.6 6.948 A 2.415 2.415 0 0 1 93.245 6.924 Q 93.065 6.897 92.922 6.841 A 0.902 0.902 0 0 1 92.61 6.642 A 0.91 0.91 0 0 1 92.406 6.317 Q 92.352 6.174 92.327 5.995 A 2.436 2.436 0 0 1 92.304 5.652 L 92.304 1.296 A 2.415 2.415 0 0 1 92.328 0.941 Q 92.355 0.761 92.412 0.618 A 0.902 0.902 0 0 1 92.61 0.306 A 0.91 0.91 0 0 1 92.936 0.102 Q 93.079 0.048 93.257 0.023 A 2.436 2.436 0 0 1 93.6 0 L 95.184 0 Q 100.26 0 102.15 2.052 A 7.03 7.03 0 0 1 103.905 5.715 A 9.847 9.847 0 0 1 104.04 7.38 L 104.04 12.168 A 4.63 4.63 0 0 1 104.816 12.485 Q 105.24 12.708 105.546 13.005 A 2.596 2.596 0 0 1 105.768 13.248 A 2.412 2.412 0 0 1 106.186 14.065 Q 106.29 14.407 106.325 14.816 A 5.174 5.174 0 0 1 106.344 15.264 L 106.344 16.524 A 4.727 4.727 0 0 1 106.282 17.315 Q 106.155 18.062 105.768 18.558 Q 105.233 19.244 104.202 19.603 A 5.263 5.263 0 0 1 104.04 19.656 L 104.04 24.336 A 11.038 11.038 0 0 1 104.04 24.387 Q 104.034 25.689 103.721 26.798 A 6.868 6.868 0 0 1 102.15 29.628 A 5.142 5.142 0 0 1 100.38 30.838 Q 98.743 31.547 96.18 31.659 A 22.804 22.804 0 0 1 95.184 31.68 L 93.6 31.68 A 2.415 2.415 0 0 1 93.245 31.656 Q 93.065 31.629 92.922 31.573 A 0.902 0.902 0 0 1 92.61 31.374 A 0.91 0.91 0 0 1 92.406 31.049 Q 92.352 30.906 92.327 30.727 A 2.436 2.436 0 0 1 92.304 30.384 L 92.304 26.1 A 2.415 2.415 0 0 1 92.328 25.745 Q 92.355 25.565 92.412 25.422 A 0.902 0.902 0 0 1 92.61 25.11 A 0.91 0.91 0 0 1 92.936 24.906 Q 93.079 24.852 93.257 24.827 A 2.436 2.436 0 0 1 93.6 24.804 L 94.356 24.804 Q 95.22 24.804 95.526 24.372 A 1.347 1.347 0 0 0 95.7 24.016 Q 95.814 23.673 95.83 23.168 A 5.323 5.323 0 0 0 95.832 23.004 Z M 100.116 24.336 L 100.116 18.9 A 3.7 3.7 0 0 0 100.86 18.726 Q 101.426 18.527 101.808 18.144 Q 102.381 17.571 102.418 16.556 A 3.899 3.899 0 0 0 102.42 16.416 L 102.42 15.408 A 3.47 3.47 0 0 0 102.36 14.743 Q 102.284 14.354 102.112 14.054 A 1.775 1.775 0 0 0 101.808 13.662 A 2.472 2.472 0 0 0 100.972 13.136 Q 100.589 12.987 100.116 12.924 L 100.116 7.38 Q 100.116 6.101 99.767 5.257 A 2.61 2.61 0 0 0 99.018 4.212 A 3.332 3.332 0 0 0 98.015 3.664 Q 97.093 3.335 95.733 3.314 A 12.143 12.143 0 0 0 95.544 3.312 L 95.544 3.672 A 9.399 9.399 0 0 1 96.669 3.735 Q 97.885 3.882 98.606 4.374 A 2.622 2.622 0 0 1 98.73 4.464 Q 99.729 5.235 99.755 7.268 A 8.576 8.576 0 0 1 99.756 7.38 L 99.756 13.212 Q 100.906 13.344 101.441 13.79 A 1.45 1.45 0 0 1 101.538 13.878 A 1.663 1.663 0 0 1 101.945 14.57 Q 102.028 14.833 102.051 15.151 A 3.54 3.54 0 0 1 102.06 15.408 L 102.06 16.416 A 3.015 3.015 0 0 1 102.007 16.999 Q 101.939 17.346 101.782 17.613 A 1.563 1.563 0 0 1 101.52 17.946 A 1.877 1.877 0 0 1 101.019 18.285 Q 100.521 18.522 99.756 18.612 L 99.756 24.336 A 5.326 5.326 0 0 1 99.657 25.401 Q 99.529 26.027 99.236 26.503 A 2.723 2.723 0 0 1 98.712 27.126 Q 97.932 27.812 96.549 27.985 A 8.092 8.092 0 0 1 95.544 28.044 L 95.544 28.404 Q 97.884 28.404 99 27.396 A 3.161 3.161 0 0 0 99.887 25.981 Q 100.052 25.467 100.098 24.842 A 6.849 6.849 0 0 0 100.116 24.336 Z" fill="url(#paint4_linear_3_20)"/>
<defs>
<linearGradient id="paint0_linear_3_20" x1="-1.66963" y1="29.9023" x2="81.4006" y2="0.496942" gradientUnits="userSpaceOnUse">
<stop stop-color="#00C0FD"/>
<stop offset="1" stop-color="#E70FAA"/>
</linearGradient>
<linearGradient id="paint1_linear_3_20" x1="-1.66963" y1="29.9023" x2="81.4006" y2="0.496942" gradientUnits="userSpaceOnUse">
<stop stop-color="#00C0FD"/>
<stop offset="1" stop-color="#E70FAA"/>
</linearGradient>
<linearGradient id="paint2_linear_3_20" x1="-1.66963" y1="29.9023" x2="81.4006" y2="0.496942" gradientUnits="userSpaceOnUse">
<stop stop-color="#00C0FD"/>
<stop offset="1" stop-color="#E70FAA"/>
</linearGradient>
<linearGradient id="paint3_linear_3_20" x1="-1.66963" y1="29.9023" x2="81.4006" y2="0.496942" gradientUnits="userSpaceOnUse">
<stop stop-color="#00C0FD"/>
<stop offset="1" stop-color="#E70FAA"/>
</linearGradient>
<linearGradient id="paint4_linear_3_20" x1="-1.66963" y1="29.9023" x2="81.4006" y2="0.496942" gradientUnits="userSpaceOnUse">
<stop stop-color="#00C0FD"/>
<stop offset="1" stop-color="#E70FAA"/>
</linearGradient>
</defs>
</svg>
