<svg width="70.896" height="21.12" viewBox="0 0 70.896 21.12" xmlns="http://www.w3.org/2000/svg"><g id="svgGroup" stroke-linecap="round" fill-rule="nonzero" font-size="9pt" stroke="#000" stroke-width="0.25mm" fill="#000" style="stroke:#000;stroke-width:0.25mm;fill:#000"><path d="M 7.008 12.576 L 7.008 15.336 A 3.033 3.033 0 0 0 7.024 15.656 Q 7.065 16.04 7.212 16.248 Q 7.413 16.531 7.973 16.536 A 2.267 2.267 0 0 0 7.992 16.536 L 8.496 16.536 Q 8.952 16.536 9.156 16.74 Q 9.36 16.944 9.36 17.4 L 9.36 20.256 Q 9.36 20.712 9.156 20.916 Q 8.952 21.12 8.496 21.12 L 7.44 21.12 Q 4.615 21.12 3.27 20.167 A 3.002 3.002 0 0 1 2.796 19.752 Q 1.536 18.384 1.536 16.224 L 1.536 13.104 A 2.992 2.992 0 0 1 1.014 12.889 Q 0.712 12.727 0.501 12.506 A 1.732 1.732 0 0 1 0.384 12.372 Q 0.062 11.959 0.01 11.285 A 3.505 3.505 0 0 1 0 11.016 L 0 10.176 A 3.128 3.128 0 0 1 0.041 9.65 Q 0.089 9.372 0.191 9.148 A 1.502 1.502 0 0 1 0.384 8.832 Q 0.73 8.399 1.389 8.162 A 3.571 3.571 0 0 1 1.536 8.112 L 1.536 4.92 A 6.186 6.186 0 0 1 1.728 3.338 A 4.587 4.587 0 0 1 2.796 1.368 A 3.428 3.428 0 0 1 3.976 0.562 Q 5.067 0.089 6.776 0.014 A 15.203 15.203 0 0 1 7.44 0 L 8.496 0 Q 8.952 0 9.156 0.204 Q 9.36 0.408 9.36 0.864 L 9.36 3.768 Q 9.36 4.224 9.156 4.428 Q 8.952 4.632 8.496 4.632 L 7.992 4.632 Q 7.416 4.632 7.212 4.92 A 0.898 0.898 0 0 0 7.096 5.158 Q 7.008 5.423 7.008 5.832 L 7.008 8.64 A 3.614 3.614 0 0 1 6.99 9.012 Q 6.951 9.388 6.826 9.62 A 0.882 0.882 0 0 1 6.78 9.696 Q 6.61 9.947 6.22 10.064 A 2.158 2.158 0 0 1 5.928 10.128 L 5.136 10.272 Q 4.968 10.296 4.896 10.368 Q 4.824 10.44 4.824 10.608 A 0.618 0.618 0 0 0 4.829 10.693 Q 4.843 10.788 4.888 10.84 A 0.177 0.177 0 0 0 4.896 10.848 A 0.256 0.256 0 0 0 4.962 10.895 Q 5.03 10.929 5.136 10.944 L 5.928 11.088 A 2.111 2.111 0 0 1 6.247 11.161 Q 6.408 11.212 6.531 11.287 A 0.805 0.805 0 0 1 6.78 11.52 Q 6.987 11.826 7.006 12.449 A 4.228 4.228 0 0 1 7.008 12.576 Z M 7.2 18.936 L 7.2 18.696 Q 5.784 18.696 5.088 18.084 A 1.923 1.923 0 0 1 4.525 17.194 Q 4.392 16.77 4.392 16.224 L 4.392 12.408 Q 3.613 12.316 3.249 11.995 A 1.028 1.028 0 0 1 3.216 11.964 Q 2.856 11.616 2.856 10.944 L 2.856 10.272 A 2.077 2.077 0 0 1 2.89 9.884 Q 2.933 9.66 3.029 9.486 A 1.04 1.04 0 0 1 3.204 9.252 A 1.163 1.163 0 0 1 3.518 9.035 Q 3.854 8.87 4.392 8.808 L 4.392 4.92 A 4.582 4.582 0 0 1 4.438 4.249 Q 4.568 3.368 5.076 2.976 A 2.124 2.124 0 0 1 5.688 2.657 Q 6.256 2.461 7.086 2.449 A 7.613 7.613 0 0 1 7.2 2.448 L 7.2 2.208 A 6.635 6.635 0 0 0 6.376 2.256 Q 5.41 2.377 4.884 2.808 A 1.741 1.741 0 0 0 4.384 3.508 Q 4.261 3.805 4.203 4.183 A 4.901 4.901 0 0 0 4.152 4.92 L 4.152 8.616 A 2.547 2.547 0 0 0 3.656 8.73 Q 3.353 8.835 3.128 9.016 A 1.508 1.508 0 0 0 3.024 9.108 Q 2.664 9.458 2.622 10.098 A 2.657 2.657 0 0 0 2.616 10.272 L 2.616 10.944 A 2.177 2.177 0 0 0 2.662 11.406 Q 2.726 11.701 2.879 11.922 A 1.251 1.251 0 0 0 3.024 12.096 A 1.642 1.642 0 0 0 3.609 12.467 Q 3.837 12.554 4.11 12.594 A 2.963 2.963 0 0 0 4.152 12.6 L 4.152 16.224 Q 4.152 17.176 4.513 17.792 A 1.986 1.986 0 0 0 4.896 18.264 Q 5.445 18.76 6.438 18.89 A 5.883 5.883 0 0 0 7.2 18.936 Z" id="0" vector-effect="non-scaling-stroke"/><path d="M 24.096 19.2 L 12.96 19.2 Q 12.504 19.2 12.3 18.996 Q 12.096 18.792 12.096 18.336 L 12.096 2.784 Q 12.096 2.328 12.3 2.124 Q 12.504 1.92 12.96 1.92 L 24.096 1.92 Q 24.552 1.92 24.756 2.124 Q 24.96 2.328 24.96 2.784 L 24.96 5.592 Q 24.96 6.048 24.756 6.252 Q 24.552 6.456 24.096 6.456 L 17.472 6.456 L 17.472 8.304 L 22.152 8.304 Q 22.608 8.304 22.812 8.508 Q 23.016 8.712 23.016 9.168 L 23.016 11.736 Q 23.016 12.192 22.812 12.396 Q 22.608 12.6 22.152 12.6 L 17.472 12.6 L 17.472 14.664 L 24.096 14.664 Q 24.552 14.664 24.756 14.868 Q 24.96 15.072 24.96 15.528 L 24.96 18.336 Q 24.96 18.792 24.756 18.996 Q 24.552 19.2 24.096 19.2 Z M 22.8 17.04 L 22.8 16.8 L 14.952 16.8 L 14.952 10.584 L 20.856 10.584 L 20.856 10.344 L 14.952 10.344 L 14.952 4.32 L 22.8 4.32 L 22.8 4.08 L 14.712 4.08 L 14.712 17.04 L 22.8 17.04 Z" id="1" vector-effect="non-scaling-stroke"/><path d="M 36.552 19.2 L 32.664 19.2 Q 32.208 19.2 32.004 18.996 Q 31.8 18.792 31.8 18.336 L 31.8 15.264 L 28.128 10.344 Q 27.578 9.602 27.397 9.051 A 2.263 2.263 0 0 1 27.396 9.048 Q 27.244 8.583 27.22 7.724 A 12.013 12.013 0 0 1 27.216 7.392 L 27.216 2.784 Q 27.216 2.328 27.42 2.124 Q 27.624 1.92 28.08 1.92 L 31.776 1.92 Q 32.232 1.92 32.436 2.124 Q 32.64 2.328 32.64 2.784 L 32.64 6.72 A 5.358 5.358 0 0 0 32.653 7.086 A 6.22 6.22 0 0 0 32.664 7.224 A 1.001 1.001 0 0 0 32.798 7.637 A 1.23 1.23 0 0 0 32.856 7.728 L 33.96 9.456 Q 34.08 9.672 34.212 9.768 Q 34.344 9.864 34.536 9.864 L 34.776 9.864 A 0.637 0.637 0 0 0 34.931 9.846 A 0.484 0.484 0 0 0 35.1 9.768 A 0.639 0.639 0 0 0 35.197 9.679 Q 35.277 9.591 35.352 9.456 L 36.456 7.728 A 1.115 1.115 0 0 0 36.599 7.451 A 0.964 0.964 0 0 0 36.648 7.224 A 5.814 5.814 0 0 0 36.67 6.857 A 5.007 5.007 0 0 0 36.672 6.72 L 36.672 2.784 Q 36.672 2.328 36.876 2.124 Q 37.08 1.92 37.536 1.92 L 41.112 1.92 Q 41.568 1.92 41.772 2.124 Q 41.976 2.328 41.976 2.784 L 41.976 7.392 A 10.2 10.2 0 0 1 41.961 7.969 Q 41.922 8.651 41.784 9.048 A 3.461 3.461 0 0 1 41.612 9.45 Q 41.411 9.856 41.064 10.344 L 37.416 15.288 L 37.416 18.336 Q 37.416 18.792 37.212 18.996 Q 37.008 19.2 36.552 19.2 Z M 34.728 12.936 L 34.896 12.936 Q 35.448 12.936 35.868 12.696 Q 36.288 12.456 36.672 11.928 L 39.072 8.688 Q 39.36 8.304 39.396 7.836 A 12.179 12.179 0 0 0 39.427 7.228 A 14.522 14.522 0 0 0 39.432 6.84 L 39.432 4.08 L 39.192 4.08 L 39.192 6.84 A 9.652 9.652 0 0 1 39.155 7.695 A 8.715 8.715 0 0 1 39.144 7.812 Q 39.096 8.28 38.856 8.592 L 36.456 11.832 Q 36.096 12.288 35.724 12.492 Q 35.352 12.696 34.896 12.696 L 34.248 12.696 A 1.841 1.841 0 0 1 33.598 12.574 A 2.22 2.22 0 0 1 33.432 12.504 Q 33.047 12.323 32.748 11.886 A 2.684 2.684 0 0 1 32.712 11.832 L 30.384 8.592 Q 30.144 8.232 30.096 7.788 A 8.254 8.254 0 0 1 30.055 7.21 A 9.896 9.896 0 0 1 30.048 6.84 L 30.048 4.08 L 29.808 4.08 L 29.808 6.84 Q 29.808 7.368 29.856 7.848 Q 29.904 8.328 30.168 8.688 L 32.496 11.928 A 3.578 3.578 0 0 0 32.789 12.284 Q 32.958 12.462 33.133 12.589 A 1.88 1.88 0 0 0 33.3 12.696 Q 33.72 12.936 34.248 12.936 L 34.488 12.936 L 34.488 17.04 L 34.728 17.04 L 34.728 12.936 Z" id="2" vector-effect="non-scaling-stroke"/><path d="M 54.792 19.2 L 45.576 19.2 Q 45.12 19.2 44.916 18.996 Q 44.712 18.792 44.712 18.336 L 44.712 2.784 Q 44.712 2.328 44.916 2.124 Q 45.12 1.92 45.576 1.92 L 53.232 1.92 Q 55.494 1.92 56.624 2.752 A 2.886 2.886 0 0 1 56.712 2.82 A 2.852 2.852 0 0 1 57.681 4.325 Q 57.815 4.802 57.836 5.376 A 5.937 5.937 0 0 1 57.84 5.592 L 57.84 6.744 A 4.785 4.785 0 0 1 57.795 7.421 Q 57.745 7.771 57.639 8.061 A 2.374 2.374 0 0 1 57.492 8.388 A 2.111 2.111 0 0 1 56.556 9.274 A 2.665 2.665 0 0 1 56.424 9.336 A 4.544 4.544 0 0 1 57.347 9.513 Q 57.909 9.688 58.318 10.012 A 2.502 2.502 0 0 1 58.704 10.392 Q 59.448 11.304 59.448 13.056 L 59.448 15.264 A 5.635 5.635 0 0 1 59.342 16.395 Q 59.207 17.053 58.9 17.551 A 2.839 2.839 0 0 1 58.308 18.24 Q 57.168 19.2 54.792 19.2 Z M 47.376 4.08 L 47.376 17.04 L 53.832 17.04 A 9.397 9.397 0 0 0 54.425 17.023 Q 54.73 17.003 54.99 16.963 A 3.875 3.875 0 0 0 55.464 16.86 A 3.284 3.284 0 0 0 55.858 16.721 Q 56.199 16.573 56.412 16.368 Q 56.736 16.056 56.856 15.612 Q 56.976 15.168 56.976 14.64 L 56.976 13.104 A 5.833 5.833 0 0 0 56.942 12.46 A 4.642 4.642 0 0 0 56.868 12 Q 56.76 11.496 56.424 11.124 Q 56.088 10.752 55.464 10.548 A 3.582 3.582 0 0 0 54.945 10.424 Q 54.679 10.379 54.367 10.359 A 8.146 8.146 0 0 0 53.856 10.344 Q 54.888 10.08 55.14 9.48 Q 55.392 8.88 55.392 8.16 L 55.392 6.624 Q 55.392 6.096 55.272 5.64 Q 55.152 5.184 54.816 4.836 A 1.801 1.801 0 0 0 54.445 4.546 Q 54.192 4.394 53.856 4.284 A 3.582 3.582 0 0 0 53.337 4.16 Q 53.071 4.115 52.759 4.095 A 8.146 8.146 0 0 0 52.248 4.08 L 47.376 4.08 Z M 47.616 10.584 L 53.856 10.584 A 6.981 6.981 0 0 1 54.631 10.624 Q 55.416 10.712 55.858 10.996 A 1.285 1.285 0 0 1 56.196 11.304 Q 56.736 12.024 56.736 13.104 L 56.736 14.64 A 2.845 2.845 0 0 1 56.662 15.309 A 1.968 1.968 0 0 1 56.184 16.212 Q 55.632 16.8 53.832 16.8 L 47.616 16.8 L 47.616 10.584 Z M 53.232 12.288 L 50.112 12.288 L 50.112 15.12 L 53.232 15.12 Q 53.548 15.12 53.755 15.005 A 0.675 0.675 0 0 0 53.916 14.88 Q 54.099 14.688 54.135 14.342 A 1.74 1.74 0 0 0 54.144 14.16 L 54.144 13.224 Q 54.144 12.921 54.053 12.719 A 0.671 0.671 0 0 0 53.916 12.516 Q 53.688 12.288 53.232 12.288 Z M 47.616 4.32 L 52.248 4.32 A 7.495 7.495 0 0 1 53.023 4.357 Q 53.797 4.438 54.242 4.696 A 1.3 1.3 0 0 1 54.6 4.992 A 2.42 2.42 0 0 1 55.141 6.353 A 3.136 3.136 0 0 1 55.152 6.624 L 55.152 8.16 A 4.029 4.029 0 0 1 55.088 8.889 A 3.688 3.688 0 0 1 55.068 8.988 Q 54.984 9.384 54.684 9.684 A 1.553 1.553 0 0 1 54.382 9.916 Q 54.141 10.06 53.808 10.164 Q 53.232 10.344 52.248 10.344 L 47.616 10.344 L 47.616 4.32 Z M 52.152 6 L 50.112 6 L 50.112 8.592 L 52.152 8.592 Q 52.468 8.592 52.675 8.477 A 0.675 0.675 0 0 0 52.836 8.352 Q 53.019 8.16 53.055 7.814 A 1.74 1.74 0 0 0 53.064 7.632 L 53.064 6.96 A 1.609 1.609 0 0 0 53.043 6.69 Q 53.018 6.546 52.965 6.433 A 0.715 0.715 0 0 0 52.836 6.24 A 0.717 0.717 0 0 0 52.529 6.053 Q 52.414 6.016 52.275 6.005 A 1.562 1.562 0 0 0 52.152 6 Z" id="3" vector-effect="non-scaling-stroke"/><path d="M 63.888 15.336 L 63.888 12.576 A 3.614 3.614 0 0 1 63.906 12.204 Q 63.945 11.828 64.07 11.596 A 0.882 0.882 0 0 1 64.116 11.52 Q 64.286 11.27 64.676 11.153 A 2.158 2.158 0 0 1 64.968 11.088 L 65.76 10.944 Q 65.928 10.92 66 10.848 Q 66.072 10.776 66.072 10.608 A 0.618 0.618 0 0 0 66.067 10.523 Q 66.053 10.428 66.008 10.376 A 0.177 0.177 0 0 0 66 10.368 A 0.256 0.256 0 0 0 65.934 10.322 Q 65.866 10.287 65.76 10.272 L 64.968 10.128 A 2.111 2.111 0 0 1 64.649 10.055 Q 64.488 10.004 64.366 9.929 A 0.805 0.805 0 0 1 64.116 9.696 Q 63.909 9.39 63.89 8.767 A 4.228 4.228 0 0 1 63.888 8.64 L 63.888 5.832 A 3.033 3.033 0 0 0 63.872 5.512 Q 63.831 5.128 63.684 4.92 Q 63.483 4.637 62.923 4.632 A 2.267 2.267 0 0 0 62.904 4.632 L 62.4 4.632 Q 61.944 4.632 61.74 4.428 Q 61.536 4.224 61.536 3.768 L 61.536 0.864 Q 61.536 0.408 61.74 0.204 Q 61.944 0 62.4 0 L 63.456 0 Q 66.281 0 67.626 0.954 A 3.002 3.002 0 0 1 68.1 1.368 A 4.687 4.687 0 0 1 69.27 3.81 A 6.564 6.564 0 0 1 69.36 4.92 L 69.36 8.112 Q 70.128 8.352 70.512 8.832 Q 70.827 9.226 70.884 9.878 A 3.449 3.449 0 0 1 70.896 10.176 L 70.896 11.016 A 3.152 3.152 0 0 1 70.855 11.543 Q 70.805 11.835 70.696 12.07 A 1.558 1.558 0 0 1 70.512 12.372 A 1.906 1.906 0 0 1 69.982 12.832 Q 69.711 12.994 69.36 13.104 L 69.36 16.224 A 6.049 6.049 0 0 1 69.156 17.834 A 4.583 4.583 0 0 1 68.1 19.752 A 3.428 3.428 0 0 1 66.92 20.559 Q 65.829 21.031 64.12 21.106 A 15.203 15.203 0 0 1 63.456 21.12 L 62.4 21.12 Q 61.944 21.12 61.74 20.916 Q 61.536 20.712 61.536 20.256 L 61.536 17.4 Q 61.536 16.944 61.74 16.74 Q 61.944 16.536 62.4 16.536 L 62.904 16.536 Q 63.48 16.536 63.684 16.248 A 0.898 0.898 0 0 0 63.8 16.01 Q 63.888 15.746 63.888 15.336 Z M 66.744 16.224 L 66.744 12.6 Q 67.401 12.513 67.798 12.165 A 1.512 1.512 0 0 0 67.872 12.096 Q 68.28 11.688 68.28 10.944 L 68.28 10.272 Q 68.28 9.727 68.074 9.369 A 1.184 1.184 0 0 0 67.872 9.108 A 1.648 1.648 0 0 0 67.314 8.758 Q 67.091 8.671 66.822 8.628 A 3.023 3.023 0 0 0 66.744 8.616 L 66.744 4.92 Q 66.744 4.067 66.511 3.505 A 1.74 1.74 0 0 0 66.012 2.808 Q 65.31 2.232 63.822 2.209 A 8.096 8.096 0 0 0 63.696 2.208 L 63.696 2.448 Q 65.136 2.448 65.82 2.976 Q 66.486 3.49 66.504 4.845 A 5.717 5.717 0 0 1 66.504 4.92 L 66.504 8.808 Q 67.344 8.904 67.692 9.252 A 1.109 1.109 0 0 1 67.964 9.713 Q 68.019 9.889 68.034 10.101 A 2.36 2.36 0 0 1 68.04 10.272 L 68.04 10.944 A 2.01 2.01 0 0 1 68.005 11.333 Q 67.959 11.564 67.854 11.742 A 1.042 1.042 0 0 1 67.68 11.964 A 1.251 1.251 0 0 1 67.346 12.19 Q 67.035 12.338 66.567 12.4 A 4.316 4.316 0 0 1 66.504 12.408 L 66.504 16.224 A 3.55 3.55 0 0 1 66.438 16.934 Q 66.289 17.661 65.808 18.084 Q 65.288 18.541 64.366 18.657 A 5.395 5.395 0 0 1 63.696 18.696 L 63.696 18.936 Q 64.65 18.936 65.298 18.685 A 2.241 2.241 0 0 0 66 18.264 A 2.107 2.107 0 0 0 66.591 17.321 Q 66.701 16.978 66.732 16.562 A 4.566 4.566 0 0 0 66.744 16.224 Z" id="4" vector-effect="non-scaling-stroke"/></g></svg>